<svg xmlns="http://www.w3.org/2000/svg" xmlns:xlink="http://www.w3.org/1999/xlink" viewBox="0 0 1366 769"><defs><style>.cls-1{fill:#71518a;}.cls-2{fill:#fff;}.cls-3{fill:url(#未命名的渐变_22);}.cls-4{fill:#e6c8fe;}</style><linearGradient id="未命名的渐变_22" x1="683" y1="83.61" x2="683" y2="60.23" gradientUnits="userSpaceOnUse"><stop offset="0" stop-opacity="0"/><stop offset="0.65"/></linearGradient></defs><title>C000BG01</title><g id="Backgound"><rect class="cls-1" width="1366" height="519"/><rect class="cls-2" x="3" y="520" width="1363" height="249"/></g><g id="Shadow"><rect class="cls-3" y="1" width="1366" height="86"/></g><g id="Patterns"><circle class="cls-1" cx="809.53" cy="729.36" r="10.75" transform="translate(-280.02 716.33) rotate(-41.28)"/><circle class="cls-1" cx="515.41" cy="586.42" r="10.75" transform="translate(-239.05 788.2) rotate(-63.59)"/><path class="cls-1" d="M612.41,518q-12.25,18.66-26.22,36.47c-20.12-2.69-53.44-5.06-75.76,4.38-4.09,1.73-13.08,5.42-19.66,13.82-2.53,3.24-10.47,13.4-7,24.52,3.32,10.65,14.71,14.47,17.5,15.41,10.61,3.56,21,.68,26.91-1,25.34-7.08,50.39-29.42,64.3-43.5a514,514,0,0,1,184.95,91.59c-2.63,20.22-4.74,52.73,4.53,74.63,1.73,4.09,5.42,13.08,13.82,19.66,3.24,2.53,13.39,10.47,24.52,7,10.65-3.32,14.47-14.71,15.41-17.5,3.56-10.61.67-21-1-26.91-6.68-23.89-26.92-47.53-41-61.82A529.94,529.94,0,0,1,852.5,518ZM526,599c-7.74,2.53-12.64,2-15.07,1.6-1.56-.28-10.29-1.88-12.53-8.56-1.72-5.11,1.43-10,2.23-11.28,4-6.3,11.31-9.27,15.56-10.95,21.37-8.44,51.83-4.26,58.18-3.32C570.25,570.37,546.33,592.42,526,599Zm147.66-81H791.33a261,261,0,0,0-28.86,71.17,252.08,252.08,0,0,0-103.54-51.42Q666.84,528.14,673.68,518ZM822.14,718.75c2.52,7.74,2,12.64,1.6,15.07-.28,1.56-1.88,10.29-8.56,12.53-5.12,1.72-10-1.43-11.28-2.23-6.3-4-9.27-11.31-10.95-15.56-8.44-21.37-4.26-51.83-3.32-58.18C793.48,674.52,815.53,698.44,822.14,718.75Zm-40.36-75.37-1.49-1.33c-.09.47-.23,1.15-.39,2a434.18,434.18,0,0,0-177-87.47A452,452,0,0,0,631.41,518h21.76a354.39,354.39,0,0,1-21.45,28.9,340.64,340.64,0,0,1,139.9,69.48A351.86,351.86,0,0,1,811.91,518h21.82A448.33,448.33,0,0,0,781.78,643.38Z" transform="translate(0 1)"/><path class="cls-4" d="M989.32,426.66c-3.12-10.4-14.51-14.41-17.5-15.41-10.61-3.56-21-.68-26.91,1-24.55,6.86-48.83,28-63,42.15a529.05,529.05,0,0,1-187.38-93c2.7-20.12,5.07-53.45-4.37-75.77-1.73-4.09-5.42-13.08-13.83-19.66-3.24-2.53-13.39-10.48-24.51-7-10.66,3.33-14.48,14.72-15.41,17.51-3.56,10.6-.68,21,1,26.91,6.92,24.78,28.44,49.3,42.56,63.38A512.5,512.5,0,0,1,612.56,518H852.65a537.44,537.44,0,0,1,33.51-48.72c10.66,2.06,47.69,8.36,76.5-4.28,15.11-6.63,20.74-15.32,22.34-18C987.18,443.34,991.93,435.36,989.32,426.66ZM650,301.21c-2.52-7.75-2-12.65-1.6-15.07.29-1.56,1.88-10.29,8.56-12.54,5.12-1.72,10,1.44,11.28,2.24,6.31,4,9.28,11.31,11,15.55,8.44,21.38,4.26,51.84,3.33,58.18C678.66,345.44,656.61,321.52,650,301.21ZM673.82,518a251.09,251.09,0,0,0,36.76-83.92A259.36,259.36,0,0,0,814.13,485.5,264,264,0,0,0,791.49,518Zm160.06,0H812.06a356.86,356.86,0,0,1,29.28-41.65,350.64,350.64,0,0,1-139.91-69.48A339.42,339.42,0,0,1,653.31,518H631.55a432.87,432.87,0,0,0,60.19-139.94,447.05,447.05,0,0,0,178.4,88.6A455.66,455.66,0,0,0,833.88,518Zm138.56-74.94c-4,6.3-11.32,9.27-15.56,10.94-21.37,8.45-51.84,4.26-58.18,3.33,4.13-3.85,28-25.9,48.36-32.51,7.75-2.53,12.65-2.05,15.08-1.6,1.56.28,10.28,1.87,12.53,8.56C976.39,436.89,973.24,441.81,972.44,443.06Z" transform="translate(0 1)"/><circle class="cls-4" cx="957.68" cy="437.43" r="10.75" transform="translate(139.93 1101.59) rotate(-63.59)"/><circle class="cls-4" cx="662.62" cy="291.6" r="10.75"/><path class="cls-4" d="M1259.7,218a162.4,162.4,0,0,1-70,25.64,162.57,162.57,0,0,1,25.64,70,167.35,167.35,0,0,1,70-25.64A167.27,167.27,0,0,1,1259.7,218Zm-38.58,83.2a120.13,120.13,0,0,0-19-51.79,120.39,120.39,0,0,0,51.8-19,123.8,123.8,0,0,0,19,51.8A123.72,123.72,0,0,0,1221.12,301.17Z" transform="translate(0 1)"/><path class="cls-4" d="M1351.9,308.24c-2.5-4.71-7.05-7.12-9.64-8.49-10.75-5.68-26.11-6.32-35.64-6.07A252.42,252.42,0,0,1,1272.26,200c7.54-6.09,19.3-16.85,23.35-27.68a22.34,22.34,0,0,0,1.67-11.34c-.29-1.94-1.2-8-6.19-10.48-4.78-2.34-9.84.35-11.08,1-4.72,2.5-7.13,7-8.5,9.64-5.74,10.85-6.33,26.41-6.06,35.92a245.28,245.28,0,0,1-94,34.25c-6.09-7.54-16.85-19.3-27.67-23.35a22.38,22.38,0,0,0-11.35-1.67c-1.94.29-8,1.2-10.47,6.19-2.35,4.78.34,9.84,1,11.08,2.5,4.72,7,7.13,9.64,8.5,11.1,5.86,27.11,6.35,36.55,6a245.36,245.36,0,0,1,34,92.43c-7.55,6.14-19,16.7-22.93,27.33a22.34,22.34,0,0,0-1.67,11.34c.29,1.95,1.2,8,6.19,10.48,4.78,2.34,9.85-.35,11.08-1,4.72-2.51,7.13-7.05,8.5-9.64,5.53-10.47,6.28-25.3,6.09-34.87a252.42,252.42,0,0,1,92.78-33.93c6,7.53,16.93,19.53,27.89,23.63a22.38,22.38,0,0,0,11.35,1.67c1.94-.29,8-1.2,10.47-6.19C1355.25,314.55,1352.56,309.48,1351.9,308.24ZM1281,158.76c.61-.45,4-2.95,7.08-1.53,2.34,1.08,3,3.78,3.17,4.47.86,3.47-.5,7-1.31,9-4.09,10.18-15.54,19.35-18,21.24,0-2.69.24-18.22,4.62-27.42A14.32,14.32,0,0,1,1281,158.76ZM1136,227a14.32,14.32,0,0,1-5.74-4.39c-.45-.61-3-4-1.53-7.08,1.08-2.34,3.79-3,4.47-3.18,3.47-.85,7,.51,9,1.32,10.17,4.09,19.34,15.54,21.23,18C1160.73,231.56,1145.21,231.35,1136,227Zm58.86,144.4c-.61.45-4,2.95-7.08,1.54-2.34-1.09-3-3.79-3.17-4.48-.86-3.47.5-7,1.31-9,4.09-10.17,15.54-19.35,17.95-21.24,0,2.7-.24,18.22-4.62,27.42A14.32,14.32,0,0,1,1194.86,371.37ZM1210,326.28c0-.37-.06-.7-.09-.95l-.79.57a207.17,207.17,0,0,0-32.58-88.39,207.19,207.19,0,0,0,89.25-32.7,213.32,213.32,0,0,0,32.69,89.25A213.21,213.21,0,0,0,1210,326.28Zm131.65-6.82c-3.46.86-7-.5-9-1.31-10.17-4.09-19.35-15.54-21.23-17.95,2.69,0,18.21.24,27.42,4.62a14.4,14.4,0,0,1,5.74,4.39c.45.61,3,4,1.53,7.08C1345.07,318.63,1342.36,319.29,1341.67,319.46Z" transform="translate(0 1)"/><circle class="cls-4" cx="1338.41" cy="313.67" r="5.13"/><circle class="cls-4" cx="1284.43" cy="165.97" r="5.13"/><circle class="cls-4" cx="1191.4" cy="366.16" r="5.13"/><circle class="cls-4" cx="1136.47" cy="220.12" r="5.13"/></g></svg>