<svg xmlns="http://www.w3.org/2000/svg" viewBox="0 0 1125 2436"><defs><style>.cls-1{fill:#71518a;}.cls-2{fill:#e6c8fe;}</style></defs><title>画板 1</title><g id="图层_3" data-name="图层 3"><path class="cls-1" d="M1125,749.51q-562.5,293-1125,0V0H1125Z"/></g><g id="图层_2" data-name="图层 2"><path class="cls-2" d="M1087.91,276.76a200.1,200.1,0,0,1-86.22,31.59,200.12,200.12,0,0,1,31.59,86.22A206.15,206.15,0,0,1,1119.5,363,206,206,0,0,1,1087.91,276.76Zm-47.53,102.5A148.13,148.13,0,0,0,1017,315.45a148.12,148.12,0,0,0,63.81-23.38,152.59,152.59,0,0,0,23.38,63.81A152.64,152.64,0,0,0,1040.38,379.26Z"/><path class="cls-2" d="M1201.49,388c-3.08-5.8-8.68-8.78-11.87-10.46-13.25-7-32.17-7.79-43.91-7.48a310.84,310.84,0,0,1-42.33-115.45c9.28-7.49,23.77-20.75,28.77-34.09.92-2.45,3-7.77,2-14-.36-2.39-1.47-9.89-7.62-12.9-5.89-2.89-12.13.42-13.66,1.23-5.8,3.09-8.77,8.69-10.46,11.88-7.07,13.37-7.8,32.53-7.47,44.25a302.15,302.15,0,0,1-115.78,42.2c-7.5-9.29-20.75-23.77-34.09-28.77-2.45-.92-7.77-3-14-2-2.39.36-9.88,1.47-12.9,7.62-2.89,5.89.42,12.13,1.23,13.66,3.09,5.8,8.69,8.77,11.88,10.46,13.68,7.23,33.39,7.83,45,7.45a302,302,0,0,1,41.87,113.86C1008.94,423,994.9,436,990,449.07c-.92,2.45-3,7.77-2,14,.36,2.39,1.48,9.88,7.62,12.9,5.89,2.89,12.13-.42,13.66-1.23,5.8-3.09,8.78-8.69,10.46-11.88,6.82-12.89,7.74-31.16,7.5-43a311,311,0,0,1,114.3-41.79c7.44,9.27,20.87,24.05,34.37,29.11,2.44.92,7.77,3,14,2.05,2.39-.36,9.88-1.48,12.9-7.62C1205.62,395.74,1202.31,389.5,1201.49,388Zm-87.38-184.16c.76-.55,5-3.63,8.72-1.88,2.88,1.33,3.71,4.66,3.91,5.51,1.06,4.27-.62,8.58-1.62,11.07-5,12.53-19.14,23.83-22.11,26.16,0-3.32.3-22.44,5.69-33.78A17.76,17.76,0,0,1,1114.11,203.81Zm-178.59,84c-4.32-2.06-6.22-4.24-7.07-5.41-.56-.76-3.63-5-1.89-8.72,1.33-2.88,4.67-3.71,5.51-3.92,4.28-1.05,8.58.62,11.07,1.63,12.53,5,23.83,19.14,26.16,22.11C966,293.51,946.86,293.24,935.52,287.85ZM1008,465.74c-.76.56-5,3.63-8.72,1.89-2.88-1.33-3.7-4.67-3.91-5.51-1.06-4.28.62-8.58,1.62-11.07,5-12.53,19.14-23.83,22.11-26.16,0,3.32-.3,22.44-5.69,33.78C1011.38,463,1009.2,464.89,1008,465.74Zm18.67-55.55c0-.46-.07-.86-.1-1.16l-1,.69a255.33,255.33,0,0,0-40.13-108.89,255.24,255.24,0,0,0,109.94-40.28,262.74,262.74,0,0,0,40.28,110A262.66,262.66,0,0,0,1026.7,410.19Zm162.2-8.4c-4.28,1.06-8.58-.62-11.07-1.62-12.53-5-23.84-19.14-26.16-22.11,3.32,0,22.44.3,33.78,5.69,4.32,2.06,6.22,4.24,7.07,5.41.55.76,3.63,5,1.89,8.72C1193.07,400.76,1189.74,401.59,1188.9,401.79Z"/><circle class="cls-2" cx="1118.37" cy="211.46" r="6.32"/><circle class="cls-2" cx="1003.77" cy="458.09" r="6.32"/><circle class="cls-2" cx="936.1" cy="278.17" r="6.32"/><path class="cls-2" d="M108.1,403A349.85,349.85,0,0,1,56,554.84a350,350,0,0,1,151.86,52.1A360.44,360.44,0,0,1,260,455.07,360.23,360.23,0,0,1,108.1,403Zm86.81,177.45a259.21,259.21,0,0,0-112.4-38.55,258.84,258.84,0,0,0,38.55-112.4A266.63,266.63,0,0,0,233.46,468,266.62,266.62,0,0,0,194.91,580.43Z"/><path class="cls-2" d="M384.22,371.28c-11.28-2.2-21.49,2.12-27.29,4.6-24.1,10.27-46,35.1-58.53,51.38A543.79,543.79,0,0,1,95,357.55c.06-20.86-2-55.14-14.59-76.62-2.31-3.94-7.27-12.6-16.72-18.18-3.64-2.15-15.05-8.89-25.92-3.87C27.38,263.7,25,275.81,24.43,278.78c-2.21,11.28,2.12,21.49,4.59,27.29C39.4,330.4,64.61,352.5,80.87,365A528.11,528.11,0,0,1,10.62,568.65c-20.86-.06-55.13,2-76.61,14.59-3.94,2.31-12.6,7.27-18.18,16.72-2.15,3.64-8.89,15-3.86,25.92,4.81,10.41,16.93,12.78,19.89,13.36,11.29,2.21,21.49-2.12,27.3-4.6C-16,624,6.57,597.93,18.87,581.72a528.13,528.13,0,0,1,200.71,68.59c0,21,2.23,54.37,14.6,75.45,2.31,3.93,7.27,12.6,16.71,18.18,3.64,2.15,15.05,8.88,25.92,3.86,10.41-4.81,12.79-16.93,13.37-19.9,2.2-11.28-2.12-21.48-4.6-27.29-10-23.45-33.79-44.83-50.06-57.51a543.89,543.89,0,0,1,69.17-201.23c20.78.11,55.64-1.83,77.38-14.59C386,425,394.68,420,400.25,410.57c2.15-3.65,8.89-15.05,3.87-25.92C399.3,374.23,387.19,371.86,384.22,371.28ZM37.92,287.05c.08-1.63.54-10.74,7-13.92,5-2.44,10.42.12,11.8.76,7,3.28,11,10.29,13.23,14.39,11.46,20.66,11.28,52.26,11.17,58.85C76.68,343.43,51,322,41.56,302.19,38,294.63,37.79,289.58,37.92,287.05ZM-44.73,622.1c-7.55,3.61-12.61,3.78-15.14,3.65-1.63-.08-10.74-.54-13.92-7-2.44-5,.12-10.41.77-11.79,3.27-7,10.29-11,14.39-13.24C-38,582.21-6.38,582.4.21,582.5-3.49,587-24.91,612.65-44.73,622.1Zm321.41,97.54c-.08,1.63-.53,10.73-7,13.91-5,2.44-10.42-.11-11.8-.76-7-3.28-11-10.29-13.23-14.39-11.46-20.65-11.28-52.25-11.17-58.84,4.48,3.69,30.15,25.12,39.6,44.93C276.65,712.05,276.81,717.11,276.68,719.64Zm-54.85-86.55-1.7-1.15c0,.48-.07,1.2-.12,2.09A446.37,446.37,0,0,0,28,568.57,446.29,446.29,0,0,0,94.37,374.92,459.37,459.37,0,0,0,288,441.35,459.44,459.44,0,0,0,221.83,633.09ZM389.11,403.61c-3.28,7-10.29,11-14.39,13.24-20.65,11.46-52.26,11.27-58.85,11.17,3.7-4.48,25.13-30.15,44.94-39.6,7.56-3.61,12.61-3.77,15.14-3.65,1.63.09,10.74.54,13.92,7.05C392.31,396.8,389.75,402.23,389.11,403.61Z"/><circle class="cls-2" cx="373.31" cy="399.86" r="11.04"/><circle class="cls-2" cx="53" cy="289.69" r="11.04"/><circle class="cls-2" cx="261.6" cy="716.99" r="11.04"/><path class="cls-1" d="M1033.83,1305a212.4,212.4,0,0,1-83.92,49.56,212.6,212.6,0,0,1,49.57,83.93,218.77,218.77,0,0,1,83.92-49.57A218.8,218.8,0,0,1,1033.83,1305Zm-29.89,116.14A157.22,157.22,0,0,0,967.26,1359a157.32,157.32,0,0,0,62.11-36.69,161.92,161.92,0,0,0,36.69,62.12A161.8,161.8,0,0,0,1003.94,1421.14Z"/><path class="cls-1" d="M1173.8,1399.23c-4.33-5.47-10.75-7.49-14.41-8.64-15.17-4.76-35.07-1.93-47.27.64a330,330,0,0,1-66.41-112.37c8.25-9.61,20.82-26.24,23.47-41.12.49-2.73,1.61-8.69-.55-15-.83-2.43-3.44-10-10.44-12-6.7-1.88-12.58,2.78-14,3.92-5.47,4.33-7.5,10.75-8.64,14.41-4.81,15.32-1.88,35.46.71,47.63A320.48,320.48,0,0,1,923.52,1343c-9.62-8.25-26.24-20.82-41.13-23.47-2.73-.48-8.68-1.61-15,.55-2.43.83-10,3.44-12,10.44-1.89,6.71,2.77,12.58,3.91,14,4.34,5.47,10.76,7.49,14.41,8.64,15.67,4.91,36.37,1.74,48.44-.89a320.55,320.55,0,0,1,65.61,110.8c-8.25,9.69-20.4,26-23,40.58-.49,2.73-1.62,8.69.54,15,.84,2.43,3.45,10,10.45,12,6.7,1.88,12.57-2.77,14-3.92,5.47-4.33,7.49-10.75,8.64-14.41,4.63-14.77,2.08-34-.44-46.28a330.06,330.06,0,0,1,111.28-65.63c9.55,8.24,26.41,21.09,41.47,23.78,2.73.48,8.69,1.61,15-.55,2.43-.84,10-3.45,12-10.45C1179.6,1406.54,1175,1400.67,1173.8,1399.23ZM1047.15,1223.8c.68-.72,4.48-4.74,8.74-3.65,3.26.84,4.76,4.16,5.14,5,1.92,4.26,1,9.07.44,11.86-2.86,14-15.4,28.57-18,31.57-.61-3.47-4-23.49-.56-36.36C1044.17,1227.32,1046.09,1224.92,1047.15,1223.8ZM876.89,1345.9c-4.91-1.32-7.31-3.23-8.43-4.29-.72-.68-4.75-4.48-3.65-8.74.84-3.26,4.16-4.76,5-5.14,4.26-1.93,9.08-1,11.87-.44,14.05,2.85,28.56,15.4,31.56,18C909.77,1345.94,889.76,1349.35,876.89,1345.9Zm109.92,171.75c-.68.72-4.48,4.74-8.74,3.65-3.26-.84-4.76-4.16-5.14-5-1.92-4.25-1-9.07-.44-11.86,2.85-14,15.4-28.57,18-31.57.61,3.48,4,23.49.56,36.36C989.79,1514.13,987.87,1516.53,986.81,1517.65Zm8.8-61.58c-.13-.48-.24-.89-.33-1.2l-.88.91a270.89,270.89,0,0,0-62.86-105.94,270.9,270.9,0,0,0,107-63.21,278.88,278.88,0,0,0,63.21,107A278.92,278.92,0,0,0,995.61,1456.07Zm167.7-40c-4.25,1.93-9.07,1-11.86.44-14-2.85-28.57-15.4-31.57-18,3.48-.61,23.49-4,36.36-.56,4.91,1.31,7.31,3.23,8.43,4.29.72.68,4.74,4.48,3.65,8.74C1167.48,1414.2,1164.16,1415.7,1163.31,1416.08Z"/><circle class="cls-1" cx="1053.07" cy="1230.97" r="6.71"/><circle class="cls-1" cx="980.89" cy="1510.48" r="6.71"/><circle class="cls-1" cx="875.62" cy="1335.69" r="6.71"/></g></svg>