<svg id="图层_1" data-name="图层 1" xmlns="http://www.w3.org/2000/svg" viewBox="0 0 1417.95 1079.97"><defs><style>.cls-1{fill:#71518a;}</style></defs><title>Email</title><path class="cls-1" d="M708.64,764.5l672.59-556.12A128.7,128.7,0,0,0,1288.49,169H128.79a128.66,128.66,0,0,0-92.73,39.39Z" transform="translate(0.33 -168.99)"/><path class="cls-1" d="M502.05,657.42,9.09,249.83A128.59,128.59,0,0,0-.33,298.12v821.72a128.79,128.79,0,0,0,5,35.22Z" transform="translate(0.33 -168.99)"/><path class="cls-1" d="M873,692.32,708.64,828.24,544.26,692.32,31.87,1205a128.73,128.73,0,0,0,96.92,44h1159.7a128.68,128.68,0,0,0,96.92-44Z" transform="translate(0.33 -168.99)"/><path class="cls-1" d="M1408.19,249.83,915.24,657.42l497.39,497.64a128.79,128.79,0,0,0,5-35.22V298.12A128.6,128.6,0,0,0,1408.19,249.83Z" transform="translate(0.33 -168.99)"/></svg>