<svg id="图层_1" data-name="图层 1" xmlns="http://www.w3.org/2000/svg" viewBox="0 0 1417.36 1146.28"><defs><style>.cls-1{fill:#71518a;}</style></defs><title>Wechat</title><path class="cls-1" d="M990.17,498.76c9.3,0,18.52.29,27.68.74C979.1,295.84,767.46,140.13,512.11,140.13,229.26,140.13,0,331.16,0,566.81,0,694.24,67.09,808.54,173.39,886.72l.55.54c2.32,1.47,14.07,9.22,16.69,23.93a34.23,34.23,0,0,1-1.13,16.27l-25.93,97.83c0,.51-.82,10,6.81,15.7,7,5.24,14.93,2.9,15.71,2.65L301.7,977a58.09,58.09,0,0,1,27.06-8.52,56.57,56.57,0,0,1,13.94,1q5.08,1.49,10.22,2.88l1.18.43s0-.07,0-.1a605.83,605.83,0,0,0,158,20.8c9.29,0,18.51-.23,27.68-.64a329.3,329.3,0,0,1-17.18-104.57C522.61,673.16,731.94,498.76,990.17,498.76Zm-307-136.87a68.69,68.69,0,1,1-68.68,68.69A68.69,68.69,0,0,1,683.16,361.89ZM341.06,499.26a68.69,68.69,0,1,1,68.68-68.68A68.68,68.68,0,0,1,341.06,499.26Z" transform="translate(0.04 -140.13)"/><path class="cls-1" d="M1272.09,1155.93c89-65.19,145.23-160.67,145.23-267.13,0-196.46-191.24-355.73-427.15-355.73S563,692.34,563,888.8s191.24,355.73,427.16,355.73A504.3,504.3,0,0,0,1129,1225.19a.61.61,0,0,1,.07.1,42.08,42.08,0,0,1,14-2.07c11.09.28,19.2,5.12,22.63,7.09l96.71,55.49c.66.2,7.31,2.15,13.14-2.21,6.38-4.79,5.74-12.65,5.69-13.08q-10.83-40.76-21.68-81.49a29,29,0,0,1-.95-13.56C1260.4,1166.2,1267,1159.76,1272.09,1155.93ZM848.35,831.57a57.26,57.26,0,1,1,57.26-57.26A57.25,57.25,0,0,1,848.35,831.57Zm284.66.76a57.26,57.26,0,1,1,57.26-57.26A57.26,57.26,0,0,1,1133,832.33Z" transform="translate(0.04 -140.13)"/></svg>