<svg id="图层_1" data-name="图层 1" xmlns="http://www.w3.org/2000/svg" viewBox="0 0 1417.36 1415.25"><defs><style>.cls-1{fill:#e6c8fe;}</style></defs><title>Facebook-light</title><path class="cls-1" d="M1134.06,1H283.22C123.83,19.08,0,154.29,0,318.5v778.21c0,176.5,143.08,319.57,319.58,319.57H756.69V869.11l-186.62,0L570,654.85H756.58c-.06-6.85-.13-17.05-.18-29.4-.41-93.64-.61-140.46,1.06-158.29,2.95-31.64,9.82-105.29,62.95-166.21,44.69-51.24,100.81-69.06,122.32-75.59,49.61-15.07,95.15-12.78,186.22-8.19,29.31,1.48,53.64,3.66,70.58,5.4v193c-6,0-18.72,0-34.85,0-85.06-.11-127-1-153.43,19.45a68.62,68.62,0,0,0-17.71,19.28c-7.64,12.65-9.77,26.16-11.27,35.66a140.93,140.93,0,0,0-1.5,14.45l0,150.45h211.66Q1179.07,762,1165.73,869.17l-185,0q0,273.55,0,547.09h117c176.49,0,319.57-143.07,319.57-319.57V318.5C1417.32,154.29,1293.45,19.08,1134.06,1Z" transform="translate(0.04 -1.04)"/></svg>