<svg id="图层_1" data-name="图层 1" xmlns="http://www.w3.org/2000/svg" viewBox="0 0 1417.32 1416.46"><defs><style>.cls-1{fill:#71518a;}</style></defs><title>Instgram</title><path class="cls-1" d="M927.86,282.56H489.46c-113,0-204.61,91.55-204.61,204.49V925.18c0,112.94,91.6,204.49,204.61,204.49h438.4c113,0,204.62-91.55,204.62-204.49V487.05C1132.48,374.11,1040.87,282.56,927.86,282.56Zm48.33,423.56c0,147.66-119.78,267.36-267.53,267.36h0c-147.75,0-267.52-119.7-267.52-267.36h0c0-147.66,119.77-267.36,267.52-267.36h0c147.75,0,267.53,119.7,267.53,267.36Zm9.51-214.07h0a62.3,62.3,0,1,1,0-124.59h0a62.3,62.3,0,1,1,0,124.59Z"/><path class="cls-1" d="M1099.49,0H317.84C142.3,0,0,142.21,0,317.64v781.17c0,175.43,142.3,317.65,317.84,317.65h781.65c175.53,0,317.83-142.22,317.83-317.65V317.64C1417.32,142.21,1275,0,1099.49,0Zm130.85,927.65c0,166.75-135.27,301.93-302.12,301.93H489.11C322.25,1229.58,187,1094.4,187,927.65V488.81c0-166.76,135.26-301.94,302.12-301.94H928.22c166.85,0,302.12,135.18,302.12,301.94Z"/><path class="cls-1" d="M708.66,535.38c-95.52,0-172.95,77.39-172.95,172.85h0c0,95.46,77.43,172.84,172.95,172.84s173-77.38,173-172.84h0C881.61,612.77,804.18,535.38,708.66,535.38Z"/></svg>